<svg width="166" height="99" viewBox="0 0 166 99" fill="none" xmlns="http://www.w3.org/2000/svg">
<path d="M2 64.7095C2 59.796 6.0293 54.4869 8.5 50.3341C15.4756 38.6096 22.6013 27.0158 29.35 15.1848C30.5415 13.096 33.5 4.96902 33.5 11.1527C33.5 23.1061 33.1605 35.0986 33.55 47.0471C33.7465 53.0758 36.3306 56.466 42.95 51.8243C49.9633 46.9063 56.8954 38.0553 61.2 31.1378C64.5388 25.7724 63.2 33.4978 63.2 36.0465C63.2 41.827 61.2897 50.307 63.4 55.8564C64.1284 57.7717 66.0958 54.1832 66.8 53.8403C69.9202 52.3209 70.609 58.1856 70.85 59.4064C71.9289 64.8706 74.1519 73.5974 71.3 78.9095C70.27 80.828 70.4055 77.8458 70.4 77.4193C70.3305 72.0554 70.1749 66.5726 71 61.2471C71.2732 59.484 77.8925 40.6336 80.5 45.7761C82.1533 49.0368 86.021 44.1983 89.3 44.1983" stroke="#131520" stroke-width="3" stroke-linecap="round"/>
<path d="M99.2 61.5539C97.271 55.9983 100.692 48.3999 102.1 43.0588C105.372 30.6464 108.547 18.1312 112.6 5.8934C114.837 -0.860729 114.5 2.20253 114.5 7.29587C114.5 14.6002 114.938 21.8311 115.4 29.1218C115.773 35.005 115.791 47.1702 121 51.9119C126.7 57.1003 137.293 34.4754 139.3 31.4885C139.525 31.153 142.354 26.059 143.3 27.3687C147.604 33.3252 147.554 43.8537 148.7 50.5533C150.606 61.6907 152.847 72.7769 154.8 83.9057C155.152 85.9112 157.762 94.8064 155.3 96.5718C151.763 99.1086 151.108 91.7374 151 90.6989C149.795 79.0761 150.403 66.4934 155.2 55.5057C155.917 53.8623 164 37.6732 164 46.565" stroke="#131520" stroke-width="3" stroke-linecap="round"/>
</svg>
